<?xml version="1.0" encoding="UTF-8"?>
<svg xmlns="http://www.w3.org/2000/svg" xmlns:xlink="http://www.w3.org/1999/xlink" width="1920" height="1080" viewBox="0 0 1920 1080">
<defs>
<g>
<g id="glyph-0-0">
<path d="M 9.902344 -6.582031 C 9.820312 -6.578125 9.726562 -6.558594 9.617188 -6.527344 C 9.511719 -6.492188 9.414062 -6.445312 9.320312 -6.390625 C 9.207031 -6.320312 9.117188 -6.238281 9.046875 -6.144531 C 8.976562 -6.050781 8.914062 -5.921875 8.863281 -5.757812 C 8.632812 -5.003906 8.363281 -4.125 8.054688 -3.121094 C 7.75 -2.117188 7.421875 -1.046875 7.066406 0.0859375 L 6.617188 0.0859375 L 4.867188 -5.25 L 3.046875 0.0859375 L 2.617188 0.0859375 C 2.296875 -1.050781 1.960938 -2.234375 1.617188 -3.460938 C 1.269531 -4.683594 1.039062 -5.507812 0.921875 -5.921875 C 0.894531 -6.023438 0.851562 -6.113281 0.792969 -6.191406 C 0.738281 -6.269531 0.660156 -6.339844 0.5625 -6.40625 C 0.480469 -6.460938 0.386719 -6.503906 0.277344 -6.53125 C 0.167969 -6.558594 0.0664062 -6.574219 -0.0195312 -6.582031 L -0.0195312 -6.929688 L 2.804688 -6.929688 L 2.804688 -6.582031 C 2.558594 -6.570312 2.347656 -6.542969 2.171875 -6.507812 C 2 -6.472656 1.910156 -6.414062 1.910156 -6.328125 C 1.910156 -6.296875 1.917969 -6.253906 1.925781 -6.199219 C 1.9375 -6.144531 1.945312 -6.101562 1.949219 -6.070312 C 2.023438 -5.78125 2.15625 -5.308594 2.347656 -4.648438 C 2.539062 -3.988281 2.820312 -3 3.195312 -1.679688 L 4.921875 -6.832031 L 5.402344 -6.832031 L 7.144531 -1.570312 C 7.382812 -2.378906 7.582031 -3.085938 7.753906 -3.691406 C 7.921875 -4.296875 8.0625 -4.8125 8.175781 -5.242188 C 8.253906 -5.546875 8.300781 -5.753906 8.320312 -5.867188 C 8.339844 -5.980469 8.351562 -6.074219 8.351562 -6.152344 C 8.351562 -6.261719 8.277344 -6.355469 8.125 -6.429688 C 7.972656 -6.503906 7.726562 -6.554688 7.390625 -6.582031 L 7.390625 -6.929688 L 9.902344 -6.929688 Z "/>
</g>
<g id="glyph-0-1">
<path d="M 5.589844 0 L 3.222656 0 L 3.222656 -0.320312 C 3.296875 -0.328125 3.378906 -0.335938 3.472656 -0.34375 C 3.5625 -0.347656 3.636719 -0.359375 3.695312 -0.382812 C 3.789062 -0.410156 3.855469 -0.460938 3.898438 -0.535156 C 3.941406 -0.609375 3.964844 -0.703125 3.964844 -0.820312 L 3.964844 -3.296875 C 3.964844 -3.636719 3.882812 -3.902344 3.722656 -4.085938 C 3.5625 -4.273438 3.363281 -4.363281 3.132812 -4.367188 C 2.964844 -4.363281 2.804688 -4.339844 2.660156 -4.285156 C 2.515625 -4.230469 2.386719 -4.164062 2.269531 -4.085938 C 2.160156 -4.003906 2.074219 -3.925781 2.015625 -3.84375 C 1.957031 -3.761719 1.914062 -3.691406 1.878906 -3.636719 L 1.878906 -0.867188 C 1.878906 -0.757812 1.902344 -0.667969 1.945312 -0.59375 C 1.988281 -0.523438 2.058594 -0.46875 2.148438 -0.429688 C 2.21875 -0.398438 2.292969 -0.371094 2.371094 -0.355469 C 2.445312 -0.339844 2.53125 -0.328125 2.621094 -0.320312 L 2.621094 0 L 0.265625 0 L 0.265625 -0.320312 C 0.339844 -0.328125 0.414062 -0.335938 0.496094 -0.34375 C 0.578125 -0.351562 0.644531 -0.363281 0.699219 -0.382812 C 0.789062 -0.410156 0.859375 -0.460938 0.902344 -0.535156 C 0.949219 -0.609375 0.972656 -0.703125 0.972656 -0.820312 L 0.972656 -6.429688 C 0.972656 -6.539062 0.945312 -6.652344 0.894531 -6.761719 C 0.84375 -6.875 0.78125 -6.957031 0.699219 -7.011719 C 0.640625 -7.054688 0.535156 -7.085938 0.386719 -7.101562 C 0.238281 -7.121094 0.121094 -7.132812 0.03125 -7.140625 L 0.03125 -7.453125 L 1.8125 -7.558594 L 1.878906 -7.484375 L 1.878906 -4.125 L 1.898438 -4.125 C 2.007812 -4.234375 2.105469 -4.328125 2.191406 -4.410156 C 2.28125 -4.496094 2.398438 -4.582031 2.539062 -4.671875 C 2.664062 -4.75 2.808594 -4.816406 2.976562 -4.867188 C 3.144531 -4.921875 3.335938 -4.945312 3.542969 -4.945312 C 3.972656 -4.945312 4.304688 -4.808594 4.535156 -4.539062 C 4.765625 -4.265625 4.882812 -3.875 4.882812 -3.363281 L 4.882812 -0.859375 C 4.882812 -0.746094 4.902344 -0.652344 4.945312 -0.582031 C 4.984375 -0.511719 5.054688 -0.460938 5.148438 -0.421875 C 5.222656 -0.390625 5.292969 -0.367188 5.351562 -0.355469 C 5.414062 -0.339844 5.492188 -0.328125 5.589844 -0.320312 Z "/>
</g>
<g id="glyph-0-2">
<path d="M -0.015625 1.570312 C -0.015625 1.410156 0.03125 1.277344 0.121094 1.175781 C 0.210938 1.070312 0.320312 1.019531 0.453125 1.019531 C 0.558594 1.019531 0.648438 1.039062 0.722656 1.078125 C 0.796875 1.117188 0.863281 1.167969 0.921875 1.230469 C 0.972656 1.277344 1.023438 1.34375 1.078125 1.425781 C 1.132812 1.511719 1.179688 1.582031 1.210938 1.636719 C 1.375 1.546875 1.566406 1.320312 1.792969 0.949219 C 2.019531 0.578125 2.183594 0.253906 2.285156 -0.0273438 C 1.976562 -0.796875 1.695312 -1.488281 1.445312 -2.09375 C 1.195312 -2.703125 0.933594 -3.332031 0.660156 -3.984375 C 0.597656 -4.132812 0.492188 -4.25 0.347656 -4.332031 C 0.199219 -4.417969 0.0546875 -4.46875 -0.09375 -4.492188 L -0.09375 -4.8125 L 2.105469 -4.8125 L 2.105469 -4.472656 C 2.007812 -4.46875 1.890625 -4.449219 1.753906 -4.410156 C 1.617188 -4.375 1.546875 -4.332031 1.546875 -4.28125 C 1.546875 -4.261719 1.554688 -4.230469 1.570312 -4.183594 C 1.585938 -4.140625 1.601562 -4.09375 1.621094 -4.042969 C 1.746094 -3.722656 1.933594 -3.257812 2.1875 -2.652344 C 2.441406 -2.042969 2.636719 -1.558594 2.777344 -1.195312 C 2.921875 -1.542969 3.074219 -1.902344 3.234375 -2.273438 C 3.390625 -2.648438 3.566406 -3.085938 3.761719 -3.59375 C 3.785156 -3.65625 3.820312 -3.742188 3.859375 -3.851562 C 3.902344 -3.960938 3.925781 -4.054688 3.925781 -4.132812 C 3.925781 -4.214844 3.851562 -4.292969 3.703125 -4.367188 C 3.554688 -4.441406 3.414062 -4.484375 3.28125 -4.5 L 3.28125 -4.8125 L 5.070312 -4.8125 L 5.070312 -4.511719 C 4.96875 -4.496094 4.84375 -4.4375 4.683594 -4.34375 C 4.523438 -4.246094 4.40625 -4.109375 4.328125 -3.9375 C 3.9375 -3.039062 3.59375 -2.21875 3.292969 -1.480469 C 2.992188 -0.742188 2.765625 -0.195312 2.609375 0.152344 C 2.402344 0.605469 2.21875 0.960938 2.058594 1.21875 C 1.898438 1.472656 1.738281 1.675781 1.585938 1.820312 C 1.4375 1.957031 1.300781 2.050781 1.179688 2.097656 C 1.058594 2.144531 0.929688 2.167969 0.800781 2.167969 C 0.546875 2.167969 0.347656 2.109375 0.203125 1.988281 C 0.0585938 1.867188 -0.015625 1.726562 -0.015625 1.570312 Z "/>
</g>
<g id="glyph-0-3">
<path d="M 3.765625 -6.492188 C 3.945312 -6.304688 4.078125 -6.089844 4.164062 -5.855469 C 4.25 -5.621094 4.292969 -5.363281 4.292969 -5.085938 C 4.292969 -4.484375 4.101562 -3.992188 3.714844 -3.609375 C 3.332031 -3.226562 2.804688 -3 2.132812 -2.921875 L 2.132812 -1.839844 L 1.683594 -1.839844 L 1.683594 -3.691406 C 1.890625 -3.707031 2.09375 -3.742188 2.296875 -3.792969 C 2.496094 -3.84375 2.675781 -3.925781 2.835938 -4.039062 C 3.003906 -4.160156 3.132812 -4.304688 3.226562 -4.476562 C 3.316406 -4.648438 3.363281 -4.886719 3.363281 -5.191406 C 3.363281 -5.683594 3.261719 -6.058594 3.054688 -6.316406 C 2.847656 -6.578125 2.546875 -6.710938 2.148438 -6.710938 C 2 -6.710938 1.867188 -6.6875 1.753906 -6.644531 C 1.644531 -6.597656 1.5625 -6.558594 1.507812 -6.519531 C 1.523438 -6.441406 1.546875 -6.328125 1.574219 -6.179688 C 1.601562 -6.035156 1.617188 -5.921875 1.617188 -5.84375 C 1.617188 -5.722656 1.5625 -5.613281 1.460938 -5.515625 C 1.355469 -5.414062 1.203125 -5.367188 1.007812 -5.367188 C 0.828125 -5.367188 0.703125 -5.425781 0.628906 -5.546875 C 0.554688 -5.667969 0.515625 -5.808594 0.515625 -5.96875 C 0.515625 -6.097656 0.554688 -6.226562 0.625 -6.351562 C 0.695312 -6.476562 0.808594 -6.597656 0.960938 -6.714844 C 1.09375 -6.816406 1.269531 -6.90625 1.492188 -6.984375 C 1.714844 -7.058594 1.945312 -7.09375 2.1875 -7.09375 C 2.53125 -7.09375 2.839844 -7.039062 3.105469 -6.929688 C 3.371094 -6.820312 3.59375 -6.675781 3.765625 -6.492188 M 2.59375 -0.5625 C 2.59375 -0.378906 2.527344 -0.222656 2.394531 -0.09375 C 2.261719 0.0351562 2.105469 0.0976562 1.921875 0.0976562 C 1.742188 0.0976562 1.585938 0.0351562 1.453125 -0.09375 C 1.320312 -0.222656 1.253906 -0.378906 1.253906 -0.5625 C 1.253906 -0.742188 1.320312 -0.902344 1.453125 -1.03125 C 1.585938 -1.164062 1.742188 -1.230469 1.921875 -1.230469 C 2.105469 -1.230469 2.261719 -1.164062 2.394531 -1.03125 C 2.527344 -0.902344 2.59375 -0.742188 2.59375 -0.5625 Z "/>
</g>
</g>
</defs>
<g fill="rgb(100%, 100%, 100%)" fill-opacity="1">
<use xlink:href="#glyph-0-0" x="30" y="29.169922"/>
<use xlink:href="#glyph-0-1" x="40" y="29.169922"/>
<use xlink:href="#glyph-0-2" x="46" y="29.169922"/>
<use xlink:href="#glyph-0-3" x="51" y="29.169922"/>
</g>
</svg>
